<?xml version="1.0"?>
<svg width="1920" height="1440" xmlns="http://www.w3.org/2000/svg" xmlns:svg="http://www.w3.org/2000/svg">
 <!-- Created with SVG-edit - https://github.com/SVG-Edit/svgedit-->
 <defs>
  <pattern height="192" id="puzzle" patternUnits="userSpaceOnUse" width="192" x="0" y="0">
   <path d="m192,15l0,2a11,11 0 0 0 -11,11c0,1.94 1.16,4.75 2.53,6.11l2.36,2.36a6.93,6.93 0 0 1 1.22,7.56l-0.43,0.84a8.08,8.08 0 0 1 -6.66,4.13l-35.02,0l0,35.02a6.1,6.1 0 0 0 3.03,4.87l0.84,0.43c1.58,0.79 4,0.4 5.24,-0.85l2.36,-2.36a12.04,12.04 0 0 1 7.51,-3.11a13,13 0 1 1 0.02,26a12,12 0 0 1 -7.53,-3.11l-2.36,-2.36a4.93,4.93 0 0 0 -5.24,-0.85l-0.84,0.43a6.1,6.1 0 0 0 -3.03,4.87l0,35.02l35.02,0a8.08,8.08 0 0 1 6.66,4.13l0.43,0.84a6.91,6.91 0 0 1 -1.22,7.56l-2.36,2.36a10.06,10.06 0 0 0 -2.53,6.11a11,11 0 0 0 11,11l0,2a13,13 0 0 1 -13,-13a12,12 0 0 1 3.11,-7.53l2.36,-2.36a4.93,4.93 0 0 0 0.85,-5.24l-0.43,-0.84a6.1,6.1 0 0 0 -4.87,-3.03l-35.02,0l0,35.02a8.08,8.08 0 0 1 -4.13,6.66l-0.84,0.43a6.91,6.91 0 0 1 -7.56,-1.22l-2.36,-2.36a10.06,10.06 0 0 0 -6.11,-2.53a11,11 0 0 0 -11,11l-2,0a13,13 0 0 1 13,-13c2.47,0 5.79,1.37 7.53,3.11l2.36,2.36a4.94,4.94 0 0 0 5.24,0.85l0.84,-0.43a6.1,6.1 0 0 0 3.03,-4.87l0,-35.02l-35.02,0a8.08,8.08 0 0 1 -6.66,-4.13l-0.43,-0.84a6.91,6.91 0 0 1 1.22,-7.56l2.36,-2.36a10.06,10.06 0 0 0 2.53,-6.11a11,11 0 0 0 -22,0c0,1.94 1.16,4.75 2.53,6.11l2.36,2.36a6.93,6.93 0 0 1 1.22,7.56l-0.43,0.84a8.08,8.08 0 0 1 -6.66,4.13l-35.02,0l0,35.02a6.1,6.1 0 0 0 3.03,4.87l0.84,0.43c1.58,0.79 4,0.4 5.24,-0.85l2.36,-2.36a12.04,12.04 0 0 1 7.51,-3.11a13,13 0 0 1 13.02,13l-2,0a11,11 0 0 0 -11,-11c-1.94,0 -4.75,1.16 -6.11,2.53l-2.36,2.36a6.93,6.93 0 0 1 -7.56,1.22l-0.84,-0.43a8.08,8.08 0 0 1 -4.13,-6.66l0,-35.02l-35.02,0a6.1,6.1 0 0 0 -4.87,3.03l-0.43,0.84c-0.79,1.58 -0.4,4 0.85,5.24l2.36,2.36a12.04,12.04 0 0 1 3.11,7.51a13,13 0 0 1 -13,13.02l0,-2a11,11 0 0 0 11,-11c0,-1.94 -1.16,-4.75 -2.53,-6.11l-2.36,-2.36a6.93,6.93 0 0 1 -1.22,-7.56l0.43,-0.84a8.08,8.08 0 0 1 6.66,-4.13l35.02,0l0,-35.02a6.1,6.1 0 0 0 -3.03,-4.87l-0.84,-0.43c-1.59,-0.8 -4,-0.4 -5.24,0.85l-2.36,2.36a12,12 0 0 1 -7.53,3.11a13,13 0 1 1 0,-26c2.47,0 5.79,1.37 7.53,3.11l2.36,2.36a4.94,4.94 0 0 0 5.24,0.85l0.84,-0.43a6.1,6.1 0 0 0 3.03,-4.87l0,-35.02l-35.02,0a8.08,8.08 0 0 1 -6.66,-4.13l-0.43,-0.84a6.91,6.91 0 0 1 1.22,-7.56l2.36,-2.36a10.06,10.06 0 0 0 2.53,-6.11a11,11 0 0 0 -11,-11l0,-2a13,13 0 0 1 13,13c0,2.47 -1.37,5.79 -3.11,7.53l-2.36,2.36a4.94,4.94 0 0 0 -0.85,5.24l0.43,0.84a6.1,6.1 0 0 0 4.87,3.03l35.02,0l0,-35.02a8.08,8.08 0 0 1 4.13,-6.66l0.84,-0.43a6.91,6.91 0 0 1 7.56,1.22l2.36,2.36a10.06,10.06 0 0 0 6.11,2.53a11,11 0 0 0 11,-11l2,0a13,13 0 0 1 -13,13a12,12 0 0 1 -7.53,-3.11l-2.36,-2.36a4.93,4.93 0 0 0 -5.24,-0.85l-0.84,0.43a6.1,6.1 0 0 0 -3.03,4.87l0,35.02l35.02,0a8.08,8.08 0 0 1 6.66,4.13l0.43,0.84a6.91,6.91 0 0 1 -1.22,7.56l-2.36,2.36a10.06,10.06 0 0 0 -2.53,6.11a11,11 0 0 0 22,0c0,-1.94 -1.16,-4.75 -2.53,-6.11l-2.36,-2.36a6.93,6.93 0 0 1 -1.22,-7.56l0.43,-0.84a8.08,8.08 0 0 1 6.66,-4.13l35.02,0l0,-35.02a6.1,6.1 0 0 0 -3.03,-4.87l-0.84,-0.43c-1.59,-0.8 -4,-0.4 -5.24,0.85l-2.36,2.36a12,12 0 0 1 -7.53,3.11a13,13 0 0 1 -13,-13l2,0a11,11 0 0 0 11,11c1.94,0 4.75,-1.16 6.11,-2.53l2.36,-2.36a6.93,6.93 0 0 1 7.56,-1.22l0.84,0.43a8.08,8.08 0 0 1 4.13,6.66l0,35.02l35.02,0a6.1,6.1 0 0 0 4.87,-3.03l0.43,-0.84c0.8,-1.59 0.4,-4 -0.85,-5.24l-2.36,-2.36a12,12 0 0 1 -3.11,-7.53a13,13 0 0 1 13,-13zm-107.98,128a6.1,6.1 0 0 0 4.87,-3.03l0.43,-0.84c0.8,-1.59 0.4,-4 -0.85,-5.24l-2.36,-2.36a12,12 0 0 1 -3.11,-7.53a13,13 0 1 1 26,0c0,2.47 -1.37,5.79 -3.11,7.53l-2.36,2.36a4.94,4.94 0 0 0 -0.85,5.24l0.43,0.84a6.1,6.1 0 0 0 4.87,3.03l35.02,0l0,-35.02a8.08,8.08 0 0 1 4.13,-6.66l0.84,-0.43a6.91,6.91 0 0 1 7.56,1.22l2.36,2.36a10.06,10.06 0 0 0 6.11,2.53a11,11 0 0 0 0,-22c-1.94,0 -4.75,1.16 -6.11,2.53l-2.36,2.36a6.93,6.93 0 0 1 -7.56,1.22l-0.84,-0.43a8.08,8.08 0 0 1 -4.13,-6.66l0,-35.02l-35.02,0a6.1,6.1 0 0 0 -4.87,3.03l-0.43,0.84c-0.79,1.58 -0.4,4 0.85,5.24l2.36,2.36a12.04,12.04 0 0 1 3.11,7.51a13,13 0 1 1 -26,0.02a12,12 0 0 1 3.11,-7.53l2.36,-2.36a4.93,4.93 0 0 0 0.85,-5.24l-0.43,-0.84a6.1,6.1 0 0 0 -4.87,-3.03l-35.02,0l0,35.02a8.08,8.08 0 0 1 -4.13,6.66l-0.84,0.43a6.91,6.91 0 0 1 -7.56,-1.22l-2.36,-2.36a10.06,10.06 0 0 0 -6.11,-2.53a11,11 0 0 0 0,22c1.94,0 4.75,-1.16 6.11,-2.53l2.36,-2.36a6.93,6.93 0 0 1 7.56,-1.22l0.84,0.43a8.08,8.08 0 0 1 4.13,6.66l0,35.02l35.02,0z" fill="#8cd790" id="svg_1"/>
  </pattern>
 </defs>
 <g class="layer">
  <title>Layer 1</title>
  <rect fill="url(#puzzle)" height="100%" id="svg_2" width="100%" x="0" y="0"/>
 </g>
</svg>